<?xml version="1.0" standalone="no"?>
<!DOCTYPE svg PUBLIC "-//W3C//DTD SVG 20010904//EN"
 "http://www.w3.org/TR/2001/REC-SVG-20010904/DTD/svg10.dtd">
<svg version="1.0" xmlns="http://www.w3.org/2000/svg"
 width="640.000000pt" height="400.000000pt" viewBox="0 0 640.000000 400.000000"
 preserveAspectRatio="xMidYMid meet">

<g transform="translate(0.000000,400.000000) scale(0.100000,-0.100000)"
fill="#000000" stroke="none">
<path d="M2600 3108 c-56 -11 -100 -26 -107 -36 -10 -11 -13 -70 -13 -210 0
-165 2 -193 14 -189 8 3 16 1 18 -5 2 -5 35 31 73 81 39 49 75 90 80 91 20 0
72 -42 157 -127 82 -82 94 -100 185 -273 53 -102 101 -195 107 -208 10 -20 58
-42 94 -42 18 0 143 -38 160 -49 20 -12 30 -69 42 -241 27 -395 42 -579 61
-755 11 -104 23 -237 27 -295 5 -65 11 -104 18 -103 6 1 29 -26 52 -60 117
-174 153 -219 168 -206 9 7 14 8 14 1 0 -6 -5 -12 -12 -14 -13 -5 10 -44 54
-93 27 -31 62 -42 73 -24 4 5 -2 6 -11 2 -13 -5 -16 -3 -11 10 6 16 3 19 -25
21 -7 1 -16 6 -20 11 -4 6 -8 150 -8 320 0 305 -4 360 -21 349 -11 -7 -11 7 0
25 7 10 11 5 16 -18 3 -17 11 -31 15 -31 5 0 7 6 4 14 -3 8 -1 17 5 21 7 4 11
-3 11 -16 0 -39 11 -13 20 48 8 53 21 338 25 558 3 155 1 152 51 108 17 -16
65 -56 108 -91 43 -35 85 -70 94 -77 98 -80 118 -95 128 -91 6 2 17 -1 23 -7
22 -22 11 10 -24 67 -19 32 -35 60 -35 62 0 2 -42 73 -93 157 -52 83 -102 168
-113 187 -10 19 -22 37 -25 40 -3 3 -17 24 -30 47 -13 23 -43 74 -66 114 -24
39 -43 79 -43 87 0 8 -3 12 -7 9 -3 -4 -15 8 -26 26 -10 17 -28 48 -40 67
l-20 35 25 -23 c23 -21 26 -21 32 -6 4 9 4 19 1 22 -3 3 -5 -1 -5 -8 0 -7 -3
-11 -6 -8 -3 3 -6 82 -7 174 l-2 168 -25 8 c-16 4 -6 5 25 3 50 -4 50 -4 13 6
-21 6 -38 15 -38 20 0 5 12 4 26 -2 15 -5 29 -8 31 -6 5 6 -147 59 -174 61
-11 0 -19 4 -17 8 2 3 -15 11 -38 16 -24 6 -90 28 -148 50 -58 23 -182 62
-275 88 -171 47 -303 97 -355 134 -35 25 -83 25 -210 -2z m1147 -640 c2 -17 0
-19 -7 -8 -5 8 -6 18 -4 22 8 12 10 10 11 -14z m-90 -1120 c-3 -8 -6 -5 -6 6
-1 11 2 17 5 13 3 -3 4 -12 1 -19z m48 -88 c13 -24 13 -29 1 -24 -8 3 -16 16
-19 30 -6 32 -1 30 18 -6z m6 -133 c-10 -9 -11 -8 -5 6 3 10 9 15 12 12 3 -3
0 -11 -7 -18z m52 10 c3 -8 -3 -14 -15 -14 -16 -2 -17 1 -8 13 15 17 17 17 23
1z m67 -773 c0 -8 -5 -12 -10 -9 -6 4 -8 11 -5 16 9 14 15 11 15 -7z"/>
<path d="M3820 2366 c0 -8 -4 -16 -9 -18 -5 -2 -4 -15 2 -31 12 -28 12 -27 13
17 0 25 -1 46 -3 46 -1 0 -3 -6 -3 -14z"/>
<path d="M3870 2231 c0 -6 4 -13 10 -16 6 -3 7 1 4 9 -7 18 -14 21 -14 7z"/>
</g>
</svg>
