<?xml version="1.0" standalone="no"?>
<!DOCTYPE svg PUBLIC "-//W3C//DTD SVG 20010904//EN"
 "http://www.w3.org/TR/2001/REC-SVG-20010904/DTD/svg10.dtd">
<svg version="1.0" xmlns="http://www.w3.org/2000/svg"
 width="493.000000pt" height="257.000000pt" viewBox="0 0 493.000000 257.000000"
 preserveAspectRatio="xMidYMid meet">

<g transform="translate(0.000000,257.000000) scale(0.100000,-0.100000)"
fill="#000000" stroke="none">
<path d="M3138 2120 c-91 -27 -118 -84 -118 -245 l0 -115 115 0 115 0 0 35 c0
24 9 45 29 67 l29 33 286 3 c315 3 331 1 361 -59 14 -25 15 -72 13 -315 l-3
-286 -33 -29 -32 -29 -294 0 -294 0 -31 29 -31 29 0 141 0 141 -115 0 -115 0
0 -220 c0 -249 4 -269 66 -316 l37 -29 236 -5 236 -5 100 -44 c55 -24 105 -48
112 -53 9 -7 13 4 15 44 l3 53 130 5 c147 6 184 19 220 80 19 34 20 53 23 485
2 297 0 462 -7 486 -15 51 -48 88 -95 110 -38 17 -73 19 -486 18 -245 0 -457
-4 -472 -9z"/>
<path d="M1220 2086 c-25 -13 -147 -70 -272 -126 -126 -57 -228 -106 -228
-109 1 -6 492 -292 550 -320 27 -13 35 -10 315 152 l288 166 -54 24 c-30 13
-158 72 -286 131 -128 58 -240 106 -250 106 -10 -1 -38 -11 -63 -24z m296
-127 c120 -55 223 -104 227 -109 8 -7 -431 -260 -452 -260 -9 0 -439 239 -459
255 -2 2 449 214 459 214 3 1 104 -44 225 -100z"/>
<path d="M1238 2007 c-26 -12 -48 -24 -48 -27 0 -4 16 -12 36 -19 l36 -13 -43
-45 -44 -44 70 30 c39 16 94 39 124 50 l53 22 -43 -52 c-48 -58 -45 -59 59
-13 28 13 52 20 52 18 0 -3 -27 -39 -60 -80 -33 -41 -60 -78 -60 -82 0 -5 17
-17 38 -26 l37 -17 120 67 c66 36 121 67 122 68 3 3 -391 187 -397 185 -3 0
-26 -11 -52 -22z"/>
<path d="M1017 1902 l-118 -57 190 -107 c105 -60 196 -108 202 -108 14 0 109
53 109 61 0 3 -18 14 -40 24 -22 10 -40 21 -40 26 0 4 18 30 40 58 l40 50 -81
-34 c-44 -19 -83 -35 -86 -35 -2 0 17 25 43 55 l47 55 -132 -54 c-72 -30 -131
-53 -131 -51 0 2 34 36 75 76 41 40 72 76 67 81 -4 4 -21 10 -37 13 -23 4 -59
-9 -148 -53z"/>
<path d="M1940 1761 c-52 -32 -214 -131 -360 -219 l-265 -160 -2 -339 c-1
-226 2 -327 8 -305 5 17 14 32 20 32 6 0 7 6 3 13 -5 7 0 6 11 -3 11 -9 16
-10 11 -2 -4 7 -1 12 8 12 14 0 16 21 18 143 l2 142 6 -172 5 -173 250 186
c138 102 256 189 263 193 9 5 18 76 31 232 10 123 19 211 20 194 2 -28 4 -26
28 25 14 30 29 62 33 71 12 24 24 189 14 189 -5 0 -52 -27 -104 -59z m-46
-398 c-2 -72 -2 -71 -14 -53 -9 13 -10 13 -10 0 0 -16 -38 -55 -55 -56 -5 0
-27 -17 -49 -38 -21 -20 -41 -35 -43 -32 -3 3 -15 -6 -28 -20 -12 -13 -25 -24
-29 -24 -12 0 -6 46 9 66 17 22 20 38 5 29 -16 -10 -12 21 5 35 17 14 21 7 28
-45 2 -16 5 2 6 42 0 41 6 75 12 79 8 5 10 -13 7 -64 -2 -39 0 -68 4 -66 4 3
8 33 8 68 0 50 4 67 20 81 18 16 20 16 26 1 3 -9 4 -25 1 -36 -8 -32 1 -23 18
16 10 25 19 34 30 30 8 -3 15 0 15 6 0 8 21 31 36 38 0 0 -1 -26 -2 -57z
m-240 -180 c-7 -56 -29 -91 -47 -74 -10 10 3 111 14 111 5 0 6 -19 3 -42 -5
-30 -4 -39 4 -34 7 4 12 27 12 52 0 25 5 44 11 44 7 0 8 -19 3 -57z m-59 -25
c-3 -76 -25 -112 -25 -41 0 28 -3 34 -10 23 -5 -8 -10 -32 -10 -52 0 -44 -17
-51 -23 -10 -3 22 -4 20 -6 -10 0 -21 -5 -38 -11 -38 -6 0 -7 19 -4 48 8 62
12 75 24 67 5 -3 10 0 10 7 0 7 9 19 20 26 11 7 20 21 20 32 0 11 4 20 9 20 5
0 8 -32 6 -72z m-78 4 c-8 -9 -18 -44 -22 -77 -14 -117 -45 -122 -45 -7 0 69
19 87 21 20 l1 -43 10 53 c10 52 39 104 46 82 2 -6 -3 -19 -11 -28z"/>
<path d="M1772 1330 c0 -14 2 -19 5 -12 2 6 2 18 0 25 -3 6 -5 1 -5 -13z"/>
<path d="M1828 1344 c-5 -4 -8 -21 -8 -38 1 -26 2 -28 11 -13 11 19 8 63 -3
51z"/>
<path d="M1768 1267 c-3 -19 -2 -25 4 -19 6 6 8 18 6 28 -3 14 -5 12 -10 -9z"/>
<path d="M620 1658 c0 -71 42 -543 48 -547 13 -9 295 -217 412 -304 l105 -78
3 288 c1 158 0 293 -2 299 -4 10 -548 354 -560 354 -3 0 -6 -6 -6 -12z m128
-288 c12 -11 22 -25 22 -31 0 -6 5 -7 11 -3 6 3 24 -6 40 -22 23 -22 28 -35
27 -66 -1 -21 -3 -38 -4 -38 -4 0 -34 57 -34 64 0 3 8 3 18 -1 15 -6 14 -3 -3
16 l-20 23 -6 -33 c-4 -20 -7 -25 -8 -12 -1 15 -6 20 -19 16 -27 -7 -82 59
-82 98 0 25 3 28 18 20 9 -5 27 -19 40 -31z m182 -172 c0 12 2 22 5 22 12 0
55 -33 55 -42 0 -6 -11 -3 -25 6 -22 14 -25 14 -25 1 0 -8 13 -29 30 -47 l29
-33 2 35 1 35 12 -44 c6 -24 21 -50 32 -58 20 -13 21 -12 17 12 -6 28 11 33
40 11 23 -18 22 -29 -3 -16 -28 15 -25 2 6 -22 14 -11 23 -23 20 -26 -3 -3
-16 3 -28 14 -13 10 -7 2 11 -19 19 -20 31 -37 27 -37 -9 0 -60 39 -107 83
-17 15 -34 27 -38 27 -5 0 -31 23 -59 51 -28 28 -56 48 -61 44 -14 -8 -14 4 1
46 l12 34 23 -50 c16 -35 23 -43 23 -27z"/>
<path d="M700 1365 c0 -16 46 -65 61 -65 12 0 11 7 -6 39 -12 24 -33 41 -51
41 -2 0 -4 -7 -4 -15z"/>
<path d="M880 1220 c0 -5 5 -10 10 -10 6 0 10 5 10 10 0 6 -4 10 -10 10 -5 0
-10 -4 -10 -10z"/>
<path d="M2008 1058 c-3 -33 -12 -40 -368 -310 -74 -56 -164 -125 -200 -154
-75 -59 -139 -104 -151 -104 -4 0 -106 75 -226 168 -120 92 -254 194 -298 226
-44 33 -89 66 -100 75 -11 9 16 -22 61 -69 90 -94 97 -105 124 -189 80 -252
277 -382 531 -351 90 11 122 20 185 55 121 67 174 123 317 339 116 174 147
239 147 308 0 46 -17 51 -22 6z m-1018 -381 c36 -28 90 -71 120 -97 108 -91
150 -115 205 -115 57 0 146 33 215 78 25 17 80 66 123 109 81 81 92 78 46 -13
-10 -20 -16 -39 -12 -42 7 -8 -31 -69 -59 -93 -12 -10 -18 -12 -12 -4 32 44
20 47 -38 9 -71 -46 -155 -74 -250 -84 -55 -6 -65 -10 -54 -20 7 -7 26 -16 42
-18 16 -3 -10 -4 -59 -2 -75 2 -97 8 -160 37 -114 54 -187 132 -201 213 -3 17
-10 46 -16 65 -17 58 -14 65 18 44 15 -10 56 -40 92 -67z"/>
</g>
</svg>
