<svg width="1189" height="382" fill="none" xmlns="http://www.w3.org/2000/svg"><path d="M271.168 8.441H92.018c-11.526 0-20.87 9.344-20.87 20.87v179.15c0 11.527 9.344 20.87 20.87 20.87h179.15c11.527 0 20.87-9.343 20.87-20.87V29.311c0-11.526-9.343-20.87-20.87-20.87z" fill="#66788C"/><path d="M220.072 74.61h-34.63a7.26 7.26 0 0 0-7.26 7.26v36.999h-34.82a7.258 7.258 0 0 0-7.26 7.26v34.63a7.258 7.258 0 0 0 7.26 7.26h34.64a7.26 7.26 0 0 0 7.26-7.26v-37h34.82a7.256 7.256 0 0 0 7.26-7.26v-34.63a7.27 7.27 0 0 0-2.13-5.137 7.268 7.268 0 0 0-5.14-2.123z" fill="#FFD85A"/><path d="M251 38.371h-95.8a12.128 12.128 0 0 0-12.12 12.12v30.61h-30.62a12.119 12.119 0 0 0-12.12 12.12v95.78a12.127 12.127 0 0 0 12.12 12.12h95.77c3.215 0 6.299-1.277 8.574-3.549a12.135 12.135 0 0 0 3.556-8.571v-30.63H251a12.106 12.106 0 0 0 12.11-12.12v-95.76A12.123 12.123 0 0 0 251 38.371zm-9.29 92a6.663 6.663 0 0 1-1.976 4.711 6.653 6.653 0 0 1-4.734 1.919h-36.05v36.09a6.644 6.644 0 0 1-1.951 4.706 6.656 6.656 0 0 1-4.709 1.944H128.4a6.656 6.656 0 0 1-6.153-4.103 6.644 6.644 0 0 1-.507-2.547v-63.9a6.644 6.644 0 0 1 1.951-4.706 6.672 6.672 0 0 1 2.161-1.441 6.668 6.668 0 0 1 2.548-.503h36.08v-36.12a6.647 6.647 0 0 1 6.65-6.65H235a6.649 6.649 0 0 1 6.65 6.65l.06 63.95z" fill="#EBF0F3"/><path d="M58.12 290.8l-20.736 48-20.448-48H.136L29.128 358h15.36l29.088-67.2H58.12zm96.811 67.2l-.192-67.2h-12.768l-24.768 41.76-25.152-41.76H79.187V358h14.592v-39.456l19.68 32.352h7.008l19.776-33.216.096 40.32h14.592zm84.583-51.648l-12.576 34.944-12.288-34.944h-12.672l-12.672 34.944-12.192-34.944h-14.112L181.626 358h14.4l12-32.064L219.642 358h14.4l18.72-51.648h-13.248zm39.355-.768c-8.256 0-16.608 2.208-22.272 6.24l5.376 10.464c3.744-2.976 9.408-4.8 14.88-4.8 8.064 0 11.904 3.744 11.904 10.176h-11.904c-15.744 0-22.176 6.336-22.176 15.456 0 8.928 7.2 15.648 19.296 15.648 7.584 0 12.96-2.496 15.744-7.2V358h14.016v-29.472c0-15.648-9.12-22.944-24.864-22.944zm-1.152 43.104c-5.28 0-8.448-2.496-8.448-6.24 0-3.456 2.208-6.048 9.216-6.048h10.272v5.28c-1.728 4.704-6.048 7.008-11.04 7.008zm53.874-35.52v-6.816h-14.304V358h14.976v-24.384c0-9.888 5.472-14.4 13.728-14.4 1.152 0 2.112.096 3.36.192v-13.824c-7.968 0-14.112 2.592-17.76 7.584zm76.788 19.2c0-16.608-11.712-26.784-26.88-26.784-15.744 0-27.552 11.136-27.552 26.592 0 15.36 11.616 26.592 29.472 26.592 9.312 0 16.512-2.88 21.312-8.352l-7.968-8.64c-3.552 3.36-7.488 4.992-12.96 4.992-7.872 0-13.344-3.936-14.784-10.368h39.072c.096-1.248.288-2.88.288-4.032zm-26.784-15.456c6.72 0 11.616 4.224 12.672 10.752h-25.44c1.056-6.624 5.952-10.752 12.768-10.752z" fill="#39556A"/><path d="M604.19 225.34l-30.91 10.86-18.62 26.96-31.4-9.38-30.91 10.86-19.88-26.04-31.39-9.38-.78-32.75-19.89-26.04 18.62-26.96-.78-32.75 30.91-10.87 18.62-26.96 31.4 9.38 30.91-10.86 19.88 26.04 31.39 9.38.78 32.75 19.89 26.05-18.62 26.95.78 32.76z" fill="#D4D5D7"/><path d="M598.92 221.701l-28.95 10.17-17.44 25.24-29.4-8.78-28.94 10.17-18.62-24.38-29.4-8.78-.73-30.68-18.62-24.38 17.43-25.25-.73-30.67 28.95-10.18 17.44-25.24 29.4 8.78 28.94-10.17 18.62 24.39 29.4 8.78.73 30.67 18.62 24.39-17.44 25.24.74 30.68z" fill="#fff"/><path d="M510.776 147.352l-14.784 35.136-14.304-35.136h-15.456L487.928 199h15.456l21.792-51.648h-14.4zm37.137 52.416c15.456 0 24.384-6.816 24.384-16.416 0-20.352-31.2-11.808-31.2-20.64 0-2.688 2.88-4.8 9.6-4.8 4.704 0 9.792.96 14.88 3.84l4.992-10.656c-4.896-2.88-12.768-4.512-19.872-4.512-15.072 0-23.904 6.912-23.904 16.704 0 20.64 31.2 12 31.2 20.448 0 2.88-2.592 4.704-9.504 4.704-6.336 0-13.344-2.016-17.952-4.992l-4.992 10.752c4.8 3.168 13.632 5.568 22.368 5.568z" fill="#39556A"/><path d="M910.82 94.95c-.41-.26-.86-.59-1.34-1 0 .05.86.69 1.34 1z" fill="#66788C"/><path d="M991.199 43.998c-32.07-14.25-64.25-28.25-96.4-42.33-.59-.315-1.152-.68-1.68-1.09h-7.46l-76.61 34c-7.93 3.52-16 6.77-23.75 10.64-2.8 1.4-4.86 4.26-7.26 6.45v6.39c1 9.84 2.2 19.67 3.08 29.53 2.23 25.08 4.27 50.19 6.62 75.26.18 1.92 1.86 4.12 3.47 5.4 10.95 8.75 22.1 17.24 33.07 26 1.28 1 2.67 3.1 2.52 4.54-2.22 22 18.75 56.82 65.36 56.82 41.55 0 62.36-31.58 60.74-56.43a7.162 7.162 0 0 1 3.2-7c10.13-7.74 20.24-15.53 30.05-23.67a11.999 11.999 0 0 0 3.84-7.4c3.12-34 6-68.09 8.9-102.14a6.99 6.99 0 0 1 .78-1.91v-6.39c-2.8-2.3-5.29-5.28-8.47-6.67zm-116.63 163.2l-1.72.6-38.36-27.48c-11.09-8-22.2-15.9-33.21-24-1.42-1-3.11-2.84-3.2-4.38-1.58-26-2.93-52-4.38-79.15 3.66 2.21 6.6 3.91 9.47 5.73a21118.374 21118.374 0 0 1 67.68 43.23c1.65 1.06 3.56 3.35 3.57 5.08.22 26.8.15 53.58.15 80.37zm16.65-101.2c-.91.48-2.74-.06-3.81-.69a30146.367 30146.367 0 0 1-86.78-50.65 9.341 9.341 0 0 1-1.23-1.33c12.33-5.41 24.47-10.77 36.59-16l27.68-13.2c8.73-4 16.77-7.74 24.9-11.27.87-.38 2.37.33 3.45.82 28.85 13.13 57.69 26.3 87.23 39.78-1.57 1.1-2.71 2-4 2.76-16.08 9.57-77.6 46.38-84.03 49.78zm89.69 24.34c-.37 6.56-.61 13.13-1.23 19.66a7.415 7.415 0 0 1-2.36 4.87c-24.1 17.54-48.27 34.983-72.51 52.33-.25.18-.66.13-1.43.27-.11-1.36-.33-2.68-.32-4 .23-24.86.43-49.71.85-74.57 0-1.93 1.05-4.71 2.52-5.63 25.13-15.68 50.39-31.12 75.64-46.6a8.437 8.437 0 0 1 1.83-.35c-1.01 18.29-1.99 36.17-2.99 54.05v-.03z" fill="#66788C"/><path d="M870.841 121.769a8709.577 8709.577 0 0 0-67.68-43.23c-2.87-1.82-5.81-3.52-9.47-5.73 1.46 27.1 2.8 53.13 4.38 79.15.09 1.54 1.79 3.34 3.2 4.38 11 8.08 22.12 16 33.21 24 12.78 9.173 25.567 18.333 38.36 27.48l1.72-.6c0-26.79.07-53.57-.16-80.35 0-1.76-1.91-4.04-3.56-5.1zM906.429 123.321c-1.47.92-2.49 3.69-2.52 5.63-.41 24.85-.62 49.71-.85 74.57 0 1.32.21 2.64.32 4 .77-.14 1.18-.09 1.43-.27 24.2-17.407 48.37-34.85 72.51-52.33a7.428 7.428 0 0 0 2.36-4.87c.62-6.53.87-13.1 1.23-19.66 1-17.88 2-35.77 3-54a8.442 8.442 0 0 0-1.83.35c-25.25 15.46-50.52 30.9-75.65 46.58z" fill="#fff"/><path d="M715.12 277.8l-20.736 48-20.448-48h-16.8l28.992 67.2h15.36l29.088-67.2H715.12zm28.436 8.352c5.568 0 9.312-3.648 9.312-8.64 0-4.608-3.744-8.064-9.312-8.064s-9.312 3.648-9.312 8.352c0 4.704 3.744 8.352 9.312 8.352zM736.068 345h14.976v-51.648h-14.976V345zm43.179-44.832v-6.816h-14.304V345h14.976v-24.384c0-9.888 5.472-14.4 13.728-14.4 1.152 0 2.112.096 3.36.192v-13.824c-7.968 0-14.112 2.592-17.76 7.584zm57.726 31.776c-1.632 1.248-3.84 1.92-6.048 1.92-4.032 0-6.432-2.4-6.432-6.816v-21.024h12.864v-11.52h-12.864v-12.576h-14.976v12.576h-7.968v11.52h7.968v21.216c0 12.288 7.104 18.528 19.296 18.528 4.608 0 9.12-1.056 12.192-3.264l-4.032-10.56zm49.495-38.592v25.536c0 9.504-4.992 13.92-11.904 13.92-6.624 0-10.464-3.84-10.464-12.48v-26.976h-14.976v29.184c0 15.936 9.12 23.232 22.08 23.232 6.336 0 12.096-2.4 16.032-6.912V345h14.208v-51.648h-14.976zm49.682-.768c-8.256 0-16.608 2.208-22.272 6.24l5.376 10.464c3.744-2.976 9.408-4.8 14.88-4.8 8.064 0 11.904 3.744 11.904 10.176h-11.904c-15.744 0-22.176 6.336-22.176 15.456 0 8.928 7.2 15.648 19.296 15.648 7.584 0 12.96-2.496 15.744-7.2V345h14.016v-29.472c0-15.648-9.12-22.944-24.864-22.944zm-1.152 43.104c-5.28 0-8.448-2.496-8.448-6.24 0-3.456 2.208-6.048 9.216-6.048h10.272v5.28c-1.728 4.704-6.048 7.008-11.04 7.008zm39.57 9.312h14.976v-71.232h-14.976V345zm79.272-34.944c5.48-2.88 8.93-8.064 8.93-14.784 0-10.464-8.64-17.472-25.44-17.472h-32.83V345h34.75c17.67 0 26.88-6.72 26.88-18.336 0-8.448-4.8-14.208-12.29-16.608zm-18.43-20.544c7.59 0 11.71 2.592 11.71 7.872 0 5.28-4.12 7.968-11.71 7.968h-15.45v-15.84h15.45zm2.69 43.776h-18.14V316.68h18.14c8.06 0 12.38 2.688 12.38 8.352 0 5.76-4.32 8.256-12.38 8.256zm63.33 12.48c16.41 0 28.32-11.04 28.32-26.592s-11.91-26.592-28.32-26.592c-16.42 0-28.42 11.04-28.42 26.592s12 26.592 28.42 26.592zm0-12.288c-7.49 0-13.25-5.376-13.25-14.304s5.76-14.304 13.25-14.304c7.48 0 13.15 5.376 13.15 14.304s-5.67 14.304-13.15 14.304zm86.56 11.52l-19.97-26.4 19.2-25.248h-15.94l-11.23 15.072-10.94-15.072h-16.8l19.2 25.632L1131.63 345h16.32l11.72-15.84 11.32 15.84h17z" fill="#39556A"/></svg>